<svg width="25" height="25" viewBox="0 0 25 25" fill="none" xmlns="http://www.w3.org/2000/svg">
<path d="M22.0977 11.0387H12.5527V15.1299H17.9627C17.0977 17.8574 14.9615 18.7662 12.509 18.7662C11.5586 18.7674 10.622 18.5393 9.77853 18.1013C8.93508 17.6633 8.20973 17.0284 7.66402 16.2503C7.1183 15.4722 6.76832 14.5739 6.64377 13.6318C6.51923 12.6896 6.62379 11.7313 6.94858 10.8381C7.27338 9.94494 7.80882 9.1433 8.50949 8.5012C9.21016 7.85911 10.0554 7.39549 10.9734 7.1497C11.8915 6.90391 12.8553 6.88319 13.783 7.0893C14.7108 7.29541 15.5751 7.72227 16.3027 8.33367L19.2752 5.50242C18.0782 4.39972 16.6301 3.60586 15.0566 3.18976C13.4832 2.77366 11.8319 2.74789 10.2462 3.1147C8.66056 3.48152 7.18839 4.22981 5.95751 5.29463C4.72663 6.35946 3.77425 7.70862 3.18306 9.22499C2.59186 10.7414 2.37972 12.3791 2.56504 13.9961C2.75037 15.6131 3.32756 17.1603 4.2465 18.5036C5.16545 19.8469 6.39838 20.9456 7.83826 21.7044C9.27814 22.4631 10.8814 22.8589 12.509 22.8574C18.0227 22.8574 23.009 19.2212 22.0977 11.0387Z" fill="#FCFCFD"/>
</svg>
