<svg width="30" height="29" viewBox="0 0 30 29" fill="none" xmlns="http://www.w3.org/2000/svg">
<path d="M28.335 26.5834C28.749 26.5836 29.085 26.9193 29.085 27.3334C29.085 27.7475 28.749 28.0832 28.335 28.0834H1.66797C1.25376 28.0834 0.917969 27.7476 0.917969 27.3334C0.917969 26.9192 1.25376 26.5834 1.66797 26.5834H28.335Z" fill="#D2AC67"/>
<path d="M13.1367 1.17313C14.2656 0.439508 15.7233 0.442144 16.8584 1.17117L17.0967 1.33817L17.1006 1.3411L26.4336 8.59403L25.5137 9.7786L16.1836 2.5286L16.0488 2.43289C15.3581 1.98899 14.4647 2.02447 13.8203 2.52567L4.4873 9.79227C4.02359 10.1619 3.75001 10.7195 3.75 11.2932V11.2962L3.68359 27.3362L2.18359 27.3304L2.25 11.2903C2.25093 10.2406 2.74917 9.25471 3.56152 8.6116L3.56641 8.60867L12.8994 1.3411L13.1367 1.17313ZM26.25 11.2932C26.25 10.6949 25.9811 10.1411 25.5137 9.7786L26.4336 8.59403C27.2727 9.24486 27.75 10.2383 27.75 11.2932V27.3333H26.25V11.2932Z" fill="#D2AC67"/>
<path d="M17.585 22.6666C17.585 21.9743 17.0273 21.4168 16.335 21.4166H13.668C12.9755 21.4166 12.418 21.9742 12.418 22.6666V26.5836H17.585V22.6666ZM19.085 27.3336C19.0848 27.7476 18.7489 28.0834 18.335 28.0836H11.668C11.2539 28.0836 10.9181 27.7477 10.918 27.3336V22.6666C10.918 21.1457 12.1471 19.9166 13.668 19.9166H16.335C17.8557 19.9168 19.085 21.1459 19.085 22.6666V27.3336Z" fill="#D2AC67"/>
<path d="M12.251 12.9996C12.2508 12.6807 11.987 12.4166 11.668 12.4166H9.00098C8.68211 12.4168 8.41815 12.6808 8.41797 12.9996V14.9996C8.41797 15.3186 8.682 15.5834 9.00098 15.5836H11.668C11.9871 15.5836 12.251 15.3188 12.251 14.9996V12.9996ZM13.751 14.9996C13.751 16.1472 12.8155 17.0836 11.668 17.0836H9.00098C7.85358 17.0834 6.91797 16.1471 6.91797 14.9996V12.9996C6.91815 11.8523 7.85369 10.9168 9.00098 10.9166H11.668C12.8154 10.9166 13.7508 11.8522 13.751 12.9996V14.9996Z" fill="#D2AC67"/>
<path d="M21.583 12.9996C21.5828 12.6807 21.319 12.4166 21 12.4166H18.333C18.0141 12.4168 17.7502 12.6808 17.75 12.9996V14.9996C17.75 15.3186 18.014 15.5834 18.333 15.5836H21C21.3191 15.5836 21.583 15.3188 21.583 14.9996V12.9996ZM23.083 14.9996C23.083 16.1472 22.1475 17.0836 21 17.0836H18.333C17.1856 17.0834 16.25 16.1471 16.25 14.9996V12.9996C16.2502 11.8523 17.1857 10.9168 18.333 10.9166H21C22.1474 10.9166 23.0828 11.8522 23.083 12.9996V14.9996Z" fill="#D2AC67"/>
<path d="M24.292 2.58337C24.7032 2.58337 25.0377 2.91444 25.042 3.32556L25.082 7.32556C25.0862 7.73975 24.754 8.07923 24.3398 8.08337C23.9258 8.08746 23.5863 7.7552 23.582 7.34119L23.5498 4.08337H18.4258C18.0116 4.08337 17.6758 3.74759 17.6758 3.33337C17.6758 2.91916 18.0116 2.58337 18.4258 2.58337H24.292Z" fill="#D2AC67"/>
</svg>
