<svg width="28" height="30" viewBox="0 0 28 30" fill="none" xmlns="http://www.w3.org/2000/svg">
<path d="M0.784662 16.958C1.19033 16.8756 1.58669 17.1383 1.66943 17.5439C2.83957 23.2801 7.90979 27.5829 14.0005 27.583C20.0642 27.583 25.1241 23.2935 26.3198 17.5801C26.4046 17.1747 26.8022 16.9143 27.2075 16.999C27.6128 17.0838 27.8732 17.4814 27.7886 17.8867C26.4508 24.2798 20.79 29.083 14.0005 29.083C7.18493 29.0829 1.50875 24.2661 0.198725 17.8428C0.116291 17.4371 0.378982 17.0407 0.784662 16.958Z" fill="#D2AC67"/>
<path d="M14 0.916748C20.8447 0.916748 26.5487 5.78993 27.8164 12.2693C27.8959 12.6757 27.6309 13.0695 27.2246 13.1492C26.8181 13.2287 26.4233 12.9639 26.3438 12.5574C25.2114 6.77017 20.1153 2.41675 14 2.41675C7.92393 2.41687 2.85098 6.73257 1.66799 12.4587C1.5841 12.8642 1.18772 13.1244 0.78225 13.0408C0.376603 12.957 0.115439 12.5607 0.199243 12.155C1.52289 5.74804 7.19636 0.916874 14 0.916748Z" fill="#D2AC67"/>
<path d="M15.25 15C15.25 14.3096 14.6904 13.75 14 13.75C13.3096 13.75 12.75 14.3096 12.75 15C12.75 15.6904 13.3096 16.25 14 16.25C14.6904 16.25 15.25 15.6904 15.25 15ZM16.75 15C16.75 16.5188 15.5188 17.75 14 17.75C12.4812 17.75 11.25 16.5188 11.25 15C11.25 13.4812 12.4812 12.25 14 12.25C15.5188 12.25 16.75 13.4812 16.75 15Z" fill="#D2AC67"/>
</svg>
